<svg id="Capa_1" enable-background="new 0 0 512 512" height="512" viewBox="0 0 512 512" width="512" xmlns="http://www.w3.org/2000/svg" xmlns:xlink="http://www.w3.org/1999/xlink"><linearGradient id="SVGID_1_" gradientUnits="userSpaceOnUse" x1="90.415" x2="461.976" y1="441.578" y2="70.018"><stop offset="0" stop-color="#fff3ee" stop-opacity="0"/><stop offset=".2938" stop-color="#ffeade" stop-opacity=".373"/><stop offset=".7874" stop-color="#ffd6bb"/></linearGradient><linearGradient id="SVGID_2_" gradientUnits="userSpaceOnUse" x1="255.879" x2="255.879" y1="463.067" y2="48.933"><stop offset="0" stop-color="#ff4d4d" stop-opacity=".4"/><stop offset=".1463" stop-color="#ff4d4d" stop-opacity=".342"/><stop offset="1" stop-color="#ff4d4d" stop-opacity="0"/></linearGradient><g><g><g><path d="m159.414 12.923c-111.529-67.323-164.583 146.259-142.93 229.186 25.312 96.941 148.15 13.984 119.616 161.413-5.774 29.831-11.547 129.793 57.058 99.846 115.884-50.586 333.411 110.019 304.498-116.592-13.21-103.539-150.217-104.703-116.174-159.351 109.7-176.097 63.771-256.298-121.618-191.947-51.571 21.495-78.416-9.254-100.45-22.555z" fill="url(#SVGID_1_)"/></g><g><g><g><g><path d="m297.003 198.714-29.753-38.963h-114.442l-60 275.914h305.085c4.577 0 8.57-3.108 9.694-7.545l54.936-216.951c1.6-6.319-3.176-12.455-9.694-12.455z" fill="#ff4d4d"/></g></g><g><g><path d="m261.888 239.707h-139.737c-5.523 0-10-4.477-10-10v-170.774c0-5.523 4.477-10 10-10h139.737c5.523 0 10 4.477 10 10v170.775c0 5.522-4.477 9.999-10 9.999z" fill="#d9d9ff"/><g fill="#8383ff"><path d="m246.161 168.49h-107.666c-2.761 0-5-2.239-5-5 0-2.761 2.239-5 5-5h107.666c2.761 0 5 2.239 5 5 0 2.761-2.238 5-5 5z"/><path d="m246.161 186.283h-107.666c-2.761 0-5-2.239-5-5 0-2.761 2.239-5 5-5h107.666c2.761 0 5 2.239 5 5 0 2.761-2.238 5-5 5z"/></g></g><path d="m246.161 105.05h-107.666c-2.761 0-5-2.239-5-5v-29.192c0-2.761 2.239-5 5-5h107.666c2.761 0 5 2.239 5 5v29.192c0 2.762-2.238 5-5 5z" fill="#8383ff"/><g><path d="m246.161 127.013h-53.028c-2.761 0-5-2.239-5-5 0-2.761 2.239-5 5-5h53.028c2.761 0 5 2.239 5 5 0 2.761-2.238 5-5 5z" fill="#ff9d33"/><g><path d="m246.161 144.751h-53.028c-2.761 0-5-2.239-5-5 0-2.761 2.239-5 5-5h53.028c2.761 0 5 2.239 5 5 0 2.762-2.238 5-5 5z" fill="#ff9d33"/></g></g><g fill="#fff"><circle cx="236.367" cy="79.449" r="5"/><circle cx="218.664" cy="79.449" r="5"/><circle cx="200.961" cy="79.449" r="5"/></g></g><g><g><path d="m366.67 268.977h-139.737c-5.523 0-10-4.477-10-10v-150.774c0-5.523 4.477-10 10-10h139.737c5.523 0 10 4.477 10 10v150.775c0 5.522-4.477 9.999-10 9.999z" fill="#fff"/><path d="m350.943 217.76h-107.666c-2.761 0-5-2.239-5-5 0-2.761 2.239-5 5-5h107.666c2.761 0 5 2.239 5 5 0 2.761-2.239 5-5 5z" fill="#9494ff"/></g><path d="m350.943 154.32h-107.666c-2.761 0-5-2.239-5-5v-29.192c0-2.761 2.239-5 5-5h107.666c2.761 0 5 2.239 5 5v29.192c0 2.761-2.239 5-5 5z" fill="#9494ff"/><g><path d="m350.943 176.283h-53.028c-2.761 0-5-2.239-5-5 0-2.761 2.239-5 5-5h53.028c2.761 0 5 2.239 5 5 0 2.761-2.239 5-5 5z" fill="#ffab66"/><g><path d="m350.943 194.021h-53.028c-2.761 0-5-2.239-5-5 0-2.761 2.239-5 5-5h53.028c2.761 0 5 2.239 5 5 0 2.762-2.239 5-5 5z" fill="#ffab66"/></g></g><g fill="#fff"><circle cx="341.148" cy="128.719" r="5"/><circle cx="323.446" cy="128.719" r="5"/><circle cx="305.743" cy="128.719" r="5"/></g></g><g><g><path d="m227.003 233.789-26.808-27.581c-1.883-1.937-4.469-3.03-7.171-3.03h-100.216c-5.523 0-10 4.477-10 10v212.488c0 5.523 4.477 10 10 10h292.868c5.523 0 10-4.477 10-10v-181.877c0-5.523-4.477-10-10-10z" fill="#ff6c6c"/></g></g><g><circle cx="119.232" cy="392.759" fill="#ffc599" r="70.309"/><ellipse cx="119.232" cy="392.759" fill="#ffab66" rx="50.909" ry="50.908" transform="matrix(.707 -.707 .707 .707 -242.8 199.346)"/><g fill="#fff"><path d="m111.97 423.671v-36.35c0-4.011 3.251-7.262 7.262-7.262 4.011 0 7.262 3.251 7.262 7.262v36.35c0 4.011-3.251 7.262-7.262 7.262-4.01 0-7.262-3.251-7.262-7.262z"/><circle cx="119.232" cy="361.846" r="7.262"/></g></g><path d="m359.837 405.515h-94.782c-2.761 0-5-2.239-5-5v-40.912c0-2.761 2.239-5 5-5h94.782c2.761 0 5 2.239 5 5v40.912c0 2.761-2.239 5-5 5z" fill="#ffd9d9"/></g><path d="m51.774 318.801c-2.761 0-5-2.239-5-5 0-3.033-2.467-5.5-5.5-5.5-2.761 0-5-2.239-5-5s2.239-5 5-5c3.033 0 5.5-2.467 5.5-5.5 0-2.761 2.239-5 5-5s5 2.239 5 5c0 3.033 2.467 5.5 5.5 5.5 2.761 0 5 2.239 5 5s-2.239 5-5 5c-3.033 0-5.5 2.467-5.5 5.5 0 2.762-2.239 5-5 5z" fill="#ff6c6c"/><path d="m439.711 465.531c-2.762 0-5-2.239-5-5 0-3.033-2.468-5.5-5.5-5.5-2.762 0-5-2.239-5-5s2.238-5 5-5c3.032 0 5.5-2.467 5.5-5.5 0-2.761 2.238-5 5-5s5 2.239 5 5c0 3.033 2.468 5.5 5.5 5.5 2.762 0 5 2.239 5 5s-2.238 5-5 5c-3.032 0-5.5 2.467-5.5 5.5 0 2.761-2.238 5-5 5z" fill="#6c6cff"/><path d="m428.889 134.335c-2.762 0-5-2.239-5-5 0-3.033-2.468-5.5-5.5-5.5-2.762 0-5-2.239-5-5s2.238-5 5-5c3.032 0 5.5-2.467 5.5-5.5 0-2.761 2.238-5 5-5s5 2.239 5 5c0 3.033 2.468 5.5 5.5 5.5 2.762 0 5 2.239 5 5s-2.238 5-5 5c-3.032 0-5.5 2.467-5.5 5.5 0 2.762-2.239 5-5 5z" fill="#ff6c6c"/><g fill="#ff9d33"><path d="m448.711 172.52c-1.279 0-2.56-.488-3.535-1.464-1.953-1.953-1.953-5.119 0-7.071l10-10c1.951-1.952 5.119-1.952 7.07 0 1.953 1.953 1.953 5.119 0 7.071l-10 10c-.975.975-2.256 1.464-3.535 1.464z"/><path d="m57.274 164.32c-1.28 0-2.559-.488-3.536-1.464-1.953-1.953-1.953-5.119 0-7.071l10-10c1.953-1.952 5.118-1.952 7.071 0 1.953 1.953 1.953 5.119 0 7.071l-10 10c-.976.976-2.255 1.464-3.535 1.464z"/></g></g></g><path d="m452.828 198.714h-76.158v-90.512c0-5.523-4.477-10-10-10h-94.782v-39.27c0-5.523-4.477-10-10-10h-139.737c-5.523 0-10 4.477-10 10v144.245h-19.343c-5.523 0-10 4.477-10 10v119.433c-20.313 12.327-33.884 34.653-33.884 60.149 0 38.83 31.478 70.309 70.309 70.309 22.672 0 42.824-10.742 55.681-27.402h210.763 12.217c4.577 0 8.57-3.108 9.694-7.545l54.936-216.951c1.598-6.32-3.178-12.456-9.696-12.456z" fill="url(#SVGID_2_)"/></g></svg>