<svg id="Capa_1" enable-background="new 0 0 512 512" height="512" viewBox="0 0 512 512" width="512" xmlns="http://www.w3.org/2000/svg" xmlns:xlink="http://www.w3.org/1999/xlink"><linearGradient id="SVGID_1_" gradientTransform="matrix(-1 0 0 1 -2677 0)" gradientUnits="userSpaceOnUse" x1="-2708.896" x2="-3120.439" y1="467.945" y2="56.402"><stop offset="0" stop-color="#fff3ee" stop-opacity="0"/><stop offset=".2938" stop-color="#ffeade" stop-opacity=".373"/><stop offset=".7874" stop-color="#ffd6bb"/></linearGradient><g><g><path d="m375.821 10.591c90.118 30.172 138.234 147.525 80.432 219.757-40.438 50.533-128.664 74.978-115.275 152.73 4.945 28.714.923 52.857-32.986 52.301-21.078-.346-34.436-20.395-52.87-27.093-22.644-8.228-37.021 19.943-45.11 37.736-29.622 65.158-139.566 98.162-168.646 22.199-34.74-90.747 54.413-174.663 121.329-230.303 35.052-29.145 39.228-59.026-.834-89.99-48.546-37.519 60.008-188.881 213.96-137.337z" fill="url(#SVGID_1_)"/></g><g><g><path d="m451.407 146.61-10.347-7.088c-.329-.226-.488-.624-.409-1.015.754-3.72 1.156-7.565 1.156-11.517 0-3.942-.402-7.787-1.156-11.507-.079-.391.08-.79.409-1.015l10.347-7.088c2.54-1.74 3.32-5.15 1.77-7.83l-10.85-18.79c-1.54-2.67-4.88-3.71-7.67-2.37l-11.306 5.406c-.36.172-.785.11-1.084-.155-5.738-5.075-12.504-9.021-19.935-11.515-.378-.127-.645-.464-.676-.861l-.969-12.495c-.23-3.07-2.8-5.45-5.89-5.45h-21.69c-3.09 0-5.66 2.38-5.9 5.45l-.969 12.495c-.031.398-.298.734-.676.861-7.43 2.495-14.187 6.441-19.925 11.515-.299.264-.724.327-1.084.155l-11.316-5.406c-2.78-1.34-6.12-.3-7.67 2.37l-10.84 18.79c-1.55 2.68-.77 6.09 1.77 7.83l10.337 7.088c.329.226.489.624.41 1.016-.1.498-.178 1.004-.265 1.506h-226.489c-11.04 0-20 8.96-20 20v314.02c0 11.04 8.96 20 20 20h314.02c11.04 0 20-8.96 20-20v-275.48l.147.07c2.79 1.34 6.13.3 7.67-2.37l10.85-18.79c1.55-2.68.77-6.09-1.77-7.83z" fill="#00c" opacity=".1"/><g><path d="m434.51 112.99v314.02c0 11.04-8.96 20-20 20h-314.02c-11.04 0-20-8.96-20-20v-314.02c0-11.04 8.96-20 20-20h314.02c11.04 0 20 8.96 20 20z" fill="#fff"/><path d="m414.51 92.99h-96l-3.78 6.56c-1.55 2.68-.77 6.09 1.77 7.83l10.33 7.09c.33.22.49.62.41 1.01-.74 3.72-1.15 7.57-1.15 11.51 0 3.95.41 7.8 1.15 11.52.08.39-.08.79-.41 1.01l-10.33 7.09c-2.54 1.74-3.32 5.15-1.77 7.83l10.84 18.79c1.55 2.67 4.89 3.71 7.67 2.37l11.31-5.41c.36-.17.79-.11 1.09.16 5.73 5.07 12.49 9.02 19.92 11.51.38.13.65.47.68.86l.97 12.5c.24 3.07 2.81 5.45 5.9 5.45h21.69c3.09 0 5.66-2.38 5.89-5.45l.97-12.5c.03-.39.29-.73.67-.86 7.43-2.49 14.2-6.44 19.94-11.51.3-.27.72-.33 1.08-.16l11.16 5.34v-62.54c0-11.04-8.96-20-20-20zm-30.56 62.86c-15.93 0-28.85-12.92-28.85-28.86 0-15.93 12.92-28.85 28.85-28.85 15.94 0 28.86 12.92 28.86 28.85 0 15.94-12.92 28.86-28.86 28.86z" fill="#d9d9ff"/><path d="m355.097 447.006h-195.194v-204.878c0-5.523 4.477-10 10-10h175.194c5.523 0 10 4.477 10 10z" fill="#fee"/><path d="m434.51 112.99v37.99h-354.02v-37.99c0-11.04 8.96-20 20-20h314.02c11.04 0 20 8.96 20 20z" fill="#ff9494"/><path d="m414.51 92.99h-96l-3.78 6.56c-1.55 2.68-.77 6.09 1.77 7.83l10.33 7.09c.33.22.49.62.41 1.01-.74 3.72-1.15 7.57-1.15 11.51 0 3.95.41 7.8 1.15 11.52.08.39-.08.79-.41 1.01l-10.33 7.09c-1.51 1.04-2.4 2.66-2.55 4.37h53.96c-7.72-5.18-12.81-13.99-12.81-23.99 0-15.93 12.92-28.85 28.85-28.85 15.94 0 28.86 12.92 28.86 28.85 0 10-5.09 18.81-12.81 23.99h34.51v-37.99c0-11.04-8.96-20-20-20z" fill="#ff6c6c"/></g><g><g><g><path d="m200.234 268.106 57.263 27.458 57.264-27.458v-69.489h-114.527z" fill="#ffab66"/><path d="m314.765 198.616v69.489l-57.271 27.457v-96.946z" fill="#ff8b00"/><path d="m257.497 171.159-57.263 27.458 57.263 27.458 57.264-27.458z" fill="#ffc599"/></g><g><g><path d="m131.048 386.602 57.263 27.458 57.263-27.458v-69.489h-114.526z" fill="#ff6c6c"/><path d="m245.579 317.112v69.489l-57.272 27.457v-96.946z" fill="#ff4d4d"/><path d="m188.311 289.655-57.263 27.458 57.263 27.458 57.263-27.458z" fill="#ff9494"/></g></g></g><g><path d="m269.421 386.602 57.263 27.458 57.263-27.458v-69.489h-114.526z" fill="#8383ff"/><path d="m383.952 317.112v69.489l-57.272 27.457v-96.946z" fill="#6c6cff"/><path d="m326.684 289.655-57.263 27.458 57.263 27.458 57.263-27.458z" fill="#b3b3ff"/></g></g><g><path d="m451.407 122.61-10.347-7.088c-.329-.226-.488-.624-.409-1.015.754-3.72 1.156-7.565 1.156-11.517 0-3.942-.402-7.786-1.156-11.507-.079-.391.079-.789.409-1.015l10.347-7.088c2.54-1.74 3.32-5.15 1.77-7.83l-10.85-18.79c-1.54-2.67-4.88-3.71-7.67-2.37l-11.306 5.406c-.36.172-.785.11-1.084-.155-5.738-5.075-12.504-9.021-19.935-11.515-.378-.127-.645-.464-.676-.861l-.969-12.495c-.23-3.07-2.8-5.45-5.89-5.45h-21.69c-3.09 0-5.66 2.38-5.9 5.45l-.969 12.495c-.031.398-.298.734-.676.861-7.43 2.495-14.187 6.441-19.925 11.515-.299.265-.724.327-1.084.155l-11.316-5.406c-2.78-1.34-6.12-.3-7.67 2.37l-10.84 18.79c-1.55 2.68-.77 6.09 1.77 7.83l10.337 7.088c.329.226.489.624.41 1.016-.746 3.72-1.157 7.564-1.157 11.506 0 3.952.411 7.796 1.157 11.516.079.392-.081.79-.41 1.016l-10.337 7.088c-2.54 1.74-3.32 5.15-1.77 7.83l10.84 18.79c1.55 2.67 4.89 3.71 7.67 2.37l11.316-5.406c.36-.172.785-.109 1.084.155 5.737 5.075 12.495 9.02 19.925 11.515.378.127.645.464.676.861l.969 12.495c.24 3.07 2.81 5.45 5.9 5.45h21.69c3.09 0 5.66-2.38 5.89-5.45l.969-12.495c.031-.398.298-.734.676-.861 7.43-2.495 14.197-6.441 19.935-11.515.299-.265.724-.327 1.084-.155l11.306 5.406c2.79 1.34 6.13.3 7.67-2.37l10.85-18.79c1.55-2.68.77-6.09-1.77-7.83zm-67.46 9.24c-15.93 0-28.85-12.92-28.85-28.86 0-15.93 12.92-28.85 28.85-28.85 15.94 0 28.86 12.92 28.86 28.85 0 15.94-12.92 28.86-28.86 28.86z" fill="#8383ff"/><path d="m383.947 59.538c-23.994 0-43.451 19.457-43.451 43.451 0 24.005 19.457 43.462 43.451 43.462 24.005 0 43.462-19.457 43.462-43.462 0-23.994-19.458-43.451-43.462-43.451zm0 72.312c-15.93 0-28.85-12.92-28.85-28.86 0-15.93 12.92-28.85 28.85-28.85 15.94 0 28.86 12.92 28.86 28.85 0 15.94-12.92 28.86-28.86 28.86z" fill="#b3b3ff"/><g fill="#00c"><path d="m80.494 354.605c2.762 0 5-2.239 5-5v-236.611c0-8.271 6.729-15 15-15h195.29c2.762 0 5-2.239 5-5s-2.238-5-5-5h-195.29c-13.785 0-25 11.215-25 25v236.612c0 2.761 2.238 4.999 5 4.999z"/><circle cx="113.915" cy="123.206" r="5"/><circle cx="132.426" cy="123.206" r="5"/><circle cx="150.938" cy="123.206" r="5"/><path d="m454.229 118.482-8.199-5.619c.519-3.27.78-6.579.78-9.869s-.262-6.599-.78-9.869l8.199-5.62c4.67-3.201 6.11-9.55 3.279-14.454l-10.849-18.79c-2.829-4.904-9.048-6.831-14.157-4.387l-8.966 4.29c-5.16-4.192-10.892-7.503-17.094-9.875l-.767-9.903c-.438-5.646-5.215-10.068-10.877-10.068h-21.697c-5.662 0-10.44 4.422-10.878 10.067l-.767 9.903c-6.203 2.372-11.935 5.683-17.094 9.875l-8.966-4.29c-5.105-2.443-11.325-.518-14.157 4.386l-10.85 18.791c-2.829 4.904-1.389 11.252 3.281 14.453l8.198 5.62c-.519 3.269-.78 6.577-.78 9.868 0 3.292.262 6.6.78 9.869l-8.198 5.619c-4.67 3.201-6.111 9.55-3.28 14.454l10.849 18.791c2.833 4.903 9.05 6.831 14.157 4.386l8.966-4.29c5.162 4.193 10.893 7.504 17.094 9.875l.767 9.903c.438 5.646 5.216 10.068 10.878 10.068h21.699c5.662 0 10.439-4.422 10.877-10.067l.767-9.903c6.202-2.371 11.932-5.682 17.094-9.875l5.969 2.856v272.328c0 8.271-6.729 15-15 15h-314.013c-8.271 0-15-6.729-15-15v-53.108c0-2.761-2.238-5-5-5s-5 2.239-5 5v53.108c0 13.785 11.215 25 25 25h314.012c13.785 0 25-11.215 25-25v-270.086c2.921-.634 5.569-2.446 7.154-5.193l10.849-18.79c2.832-4.903 1.391-11.252-3.28-14.454zm-5.38 9.454-10.849 18.791c-.237.409-.756.569-1.181.365l-11.311-5.412c-2.177-1.041-4.75-.678-6.554.92-5.338 4.721-11.464 8.26-18.208 10.518-2.285.766-3.885 2.812-4.073 5.217l-.968 12.494c-.036.471-.435.839-.906.839h-21.697c-.473 0-.871-.369-.907-.84l-.968-12.486c-.183-2.405-1.781-4.456-4.074-5.224-6.742-2.258-12.867-5.797-18.21-10.521-1.121-.99-2.536-1.504-3.968-1.504-.876 0-1.759.193-2.584.587l-11.31 5.412c-.43.205-.945.042-1.181-.366l-10.849-18.79c-.235-.409-.115-.939.274-1.206l10.338-7.086c1.986-1.361 2.961-3.768 2.482-6.13-.701-3.466-1.057-7.005-1.057-10.52 0-3.514.355-7.054 1.057-10.52.479-2.362-.496-4.769-2.482-6.13l-10.338-7.086c-.39-.267-.51-.797-.274-1.206l10.849-18.79c.236-.411.754-.569 1.181-.366l11.311 5.412c2.172 1.038 4.743.678 6.555-.92 5.338-4.721 11.463-8.26 18.207-10.519 2.292-.768 3.891-2.818 4.073-5.216l.968-12.494c.036-.471.435-.839.907-.839h21.698c.472 0 .87.369.906.84l.969 12.499c.188 2.4 1.787 4.445 4.073 5.211 6.744 2.259 12.87 5.797 18.204 10.516 1.807 1.601 4.382 1.963 6.558.922l11.31-5.412c.425-.204.943-.044 1.181.366l10.849 18.791c.236.409.116.938-.273 1.205l-10.339 7.086c-1.985 1.361-2.959 3.766-2.482 6.129.701 3.467 1.057 7.007 1.057 10.521s-.355 7.053-1.056 10.521c-.479 2.363.496 4.769 2.481 6.13l10.339 7.086c.388.267.508.796.272 1.205z"/><path d="m383.951 69.141c-18.667 0-33.854 15.187-33.854 33.853s15.187 33.853 33.854 33.853c18.666 0 33.853-15.187 33.853-33.853s-15.187-33.853-33.853-33.853zm0 10c7.473 0 14.151 3.457 18.528 8.853h-37.056c4.377-5.396 11.055-8.853 18.528-8.853zm0 47.706c-13.153 0-23.854-10.7-23.854-23.853 0-1.715.186-3.387.531-5h46.643c.345 1.614.531 3.285.531 5 .002 13.153-10.699 23.853-23.851 23.853z"/></g></g><g><g><path d="m138.938 181.454h-24.583c-2.761 0-5-2.239-5-5s2.239-5 5-5h24.583c2.761 0 5 2.239 5 5s-2.239 5-5 5z" fill="#8383ff"/></g><g><path d="m138.938 200.41h-24.583c-2.761 0-5-2.239-5-5s2.239-5 5-5h24.583c2.761 0 5 2.239 5 5s-2.239 5-5 5z" fill="#8383ff"/></g><g><path d="m138.938 219.365h-24.583c-2.761 0-5-2.239-5-5s2.239-5 5-5h24.583c2.761 0 5 2.239 5 5s-2.239 5-5 5z" fill="#8383ff"/></g></g></g><path d="m471.955 217.061c-1.031 0-2.062-.318-2.939-.955l-3.55-2.58-3.55 2.58c-1.754 1.273-4.126 1.273-5.878 0-1.753-1.273-2.486-3.53-1.816-5.59l1.355-4.174-3.551-2.58c-1.752-1.273-2.485-3.53-1.815-5.59.669-2.06 2.589-3.455 4.755-3.455h4.389l1.356-4.173c.669-2.06 2.589-3.455 4.755-3.455s4.086 1.395 4.755 3.455l1.356 4.174h4.389c2.166 0 4.086 1.395 4.755 3.455.67 2.06-.063 4.317-1.815 5.59l-3.551 2.58 1.355 4.174c.67 2.06-.063 4.317-1.816 5.59-.876.636-1.908.954-2.939.954z" fill="#ff6c6c"/><path d="m52.587 448.812c-1.031 0-2.062-.318-2.939-.955l-3.55-2.58-3.55 2.58c-1.754 1.273-4.126 1.273-5.878 0-1.753-1.273-2.486-3.53-1.816-5.59l1.355-4.174-3.551-2.58c-1.752-1.273-2.485-3.53-1.815-5.59.669-2.06 2.589-3.455 4.755-3.455h4.388l1.357-4.174c.669-2.06 2.589-3.455 4.755-3.455 2.166 0 4.086 1.395 4.755 3.455l1.356 4.174h4.389c2.166 0 4.086 1.395 4.755 3.455.67 2.06-.063 4.317-1.815 5.59l-3.551 2.58 1.355 4.174c.67 2.06-.063 4.317-1.816 5.59-.877.637-1.908.955-2.939.955z" fill="#ff9c33"/><path d="m113.915 495.01c-1.279 0-2.56-.488-3.535-1.464l-10.5-10.5c-1.953-1.953-1.953-5.119 0-7.071l10.5-10.5c1.951-1.952 5.119-1.952 7.07 0l10.5 10.5c1.953 1.953 1.953 5.119 0 7.071l-10.5 10.5c-.975.975-2.256 1.464-3.535 1.464zm-3.429-15.5 3.429 3.429 3.429-3.429-3.429-3.429z" fill="#6c6cff"/><path d="m249.746 73.924c-1.031 0-2.062-.318-2.939-.955l-3.55-2.58-3.55 2.58c-1.754 1.273-4.126 1.273-5.878 0-1.753-1.273-2.486-3.53-1.816-5.59l1.355-4.174-3.551-2.58c-1.752-1.273-2.485-3.53-1.815-5.59.669-2.06 2.589-3.455 4.755-3.455h4.388l1.357-4.174c.669-2.06 2.589-3.455 4.755-3.455 2.166 0 4.086 1.395 4.755 3.455l1.356 4.174h4.389c2.166 0 4.086 1.395 4.755 3.455.67 2.06-.063 4.317-1.815 5.59l-3.551 2.58 1.355 4.174c.67 2.06-.063 4.317-1.816 5.59-.876.636-1.908.955-2.939.955z" fill="#ff6c6c"/><path d="m287.231 64.819c-1.279 0-2.56-.488-3.535-1.464l-10.5-10.5c-1.953-1.953-1.953-5.119 0-7.071l10.5-10.5c1.951-1.952 5.119-1.952 7.07 0l10.5 10.5c1.953 1.953 1.953 5.119 0 7.071l-10.5 10.5c-.975.976-2.255 1.464-3.535 1.464zm-3.428-15.5 3.429 3.429 3.429-3.429-3.429-3.429z" fill="#6c6cff"/></g></g></svg>